<svg width="31" height="31" viewBox="0 0 31 31" fill="none" xmlns="http://www.w3.org/2000/svg">
    <rect x="1" y="1" width="29" height="29" rx="14.5" fill="white" stroke="#CCCCCC" stroke-width="2"/>
    <path fill-rule="evenodd" clip-rule="evenodd" d="M5.60152 13.1324L16.5756 13.1445C16.8423 14.2286 17.7816 15.0294 18.8997 15.0294C20.0182 15.0294 20.9578 14.2281 21.2241 13.1433L25.3221 13.1433C25.6547 13.1433 25.9245 12.8645 25.9245 12.5209C25.9245 12.1774 25.6547 11.8985 25.3221 11.8985L21.2271 11.8985C20.965 10.8074 20.0225 10 18.8997 10C17.7818 10 16.8428 10.8003 16.5758 11.884L5.60152 11.8719C5.26948 11.8719 5.00004 12.1543 5.00004 12.5021C5.00004 12.85 5.26948 13.1324 5.60152 13.1324ZM17.6757 12.5147C17.6757 13.2231 18.2176 13.7752 18.8937 13.7752C19.5698 13.7752 20.0967 13.2231 20.0967 12.5147C20.0967 11.8063 19.5698 11.2542 18.8937 11.2542C18.2176 11.2542 17.6757 11.8063 17.6757 12.5147ZM11.3693 22C10.1959 22 9.21024 21.1977 8.93087 20.1116L4.63189 20.1116C4.28306 20.1116 4 19.8324 4 19.4885C4 19.1445 4.28306 18.8653 4.63189 18.8653L8.92774 18.8653C9.20282 17.773 10.1915 16.9646 11.3693 16.9646C12.5419 16.9646 13.527 17.7658 13.8072 18.8508L25.3196 18.8387C25.668 18.8387 25.9506 19.1214 25.9506 19.4696C25.9506 19.8179 25.668 20.1006 25.3196 20.1006L13.8074 20.1128C13.5277 21.1983 12.5423 22 11.3693 22ZM11.3756 20.7443C12.0848 20.7443 12.6533 20.1916 12.6533 19.4823C12.6533 18.7731 12.0848 18.2203 11.3756 18.2203C10.6664 18.2203 10.1136 18.7731 10.1136 19.4823C10.1136 20.1916 10.6664 20.7443 11.3756 20.7443Z" fill="#C4C4C4"/>
</svg>
