<svg width="13" height="13" viewBox="0 0 13 13" fill="none" xmlns="http://www.w3.org/2000/svg">
    <path d="M11.1013 0.529583C10.5749 0.193362 9.97124 0 9.32716 0C8.19077 0 7.17309 0.600457 6.50111 1.54201C5.82595 0.600457 4.80923 0 3.67129 0C3.02876 0 2.42617 0.193362 1.89865 0.529583C0.766842 1.25638 0 2.65374 0 4.25961C0 4.71934 0.0645187 5.16025 0.181376 5.57274C0.811577 8.8574 6.50111 13 6.50111 13C6.50111 13 12.1869 8.85749 12.818 5.57274C12.9348 5.16025 13 4.71874 13 4.25961C13 2.65434 12.2332 1.25741 11.1013 0.529583Z" fill="#FF008A"/>
</svg>
