<svg width="15" height="15" viewBox="0 0 15 15" fill="none" xmlns="http://www.w3.org/2000/svg">
    <path d="M14.7721 3.48424C14.5328 2.80131 14.1124 2.18524 13.5564 1.70264C12.9999 1.21959 12.3305 0.890257 11.6206 0.750287C11.3532 0.697545 11.0782 0.670807 10.8033 0.670807C10.0013 0.670807 9.22128 0.897592 8.54761 1.32666C8.14207 1.58496 7.78582 1.90893 7.49235 2.28354C7.19897 1.90965 6.84296 1.58629 6.43784 1.3285C5.7645 0.900058 4.98502 0.673594 4.18362 0.673594C4.18358 0.673594 4.18364 0.673594 4.18361 0.673594C3.51585 0.673594 2.84567 0.838526 2.24568 1.15052C1.64613 1.46228 1.12616 1.91588 0.742025 2.46229C0.348425 3.02212 0.108668 3.649 0.0294029 4.3255C-0.0400002 4.91795 0.0135989 5.55395 0.188745 6.2158C0.5357 7.52691 1.30365 8.72282 1.88679 9.49518C3.15472 11.1745 4.89808 12.6988 7.2165 14.1553L7.49346 14.3292L7.77042 14.1553C10.6222 12.3638 12.6127 10.4724 13.8556 8.37294C14.5704 7.16552 14.9428 6.08986 14.9941 5.08451C15.0226 4.52421 14.948 3.9858 14.7721 3.48424ZM7.49349 13.0973C5.42222 11.7635 3.85797 10.3777 2.71787 8.86769C2.19096 8.16981 1.49914 7.09703 1.19544 5.94942C1.05386 5.41439 1.00953 4.90881 1.06368 4.44668C1.12258 3.94401 1.30096 3.47788 1.5939 3.06122C1.88248 2.65076 2.27399 2.30953 2.72609 2.07445C3.17836 1.83927 3.68236 1.71496 4.18362 1.71496C4.78664 1.71496 5.37282 1.88515 5.87876 2.2071C6.37193 2.52091 6.76841 2.96359 7.02529 3.48729L7.49327 4.44123L7.96043 3.48689C8.21707 2.96257 8.61354 2.5193 9.10702 2.20503C9.61325 1.88261 10.1998 1.71219 10.8033 1.71219C11.0107 1.71219 11.2179 1.73231 11.4192 1.77199C11.9512 1.87689 12.4542 2.12486 12.8738 2.48909C13.2932 2.85316 13.6098 3.3164 13.7894 3.8287C13.9203 4.20213 13.9757 4.60682 13.954 5.03149C13.9116 5.86425 13.5862 6.78372 12.9595 7.84243C11.8429 9.72843 10.053 11.4497 7.49349 13.0973Z" fill="white"/>
</svg>
