<svg width="31" height="31" viewBox="0 0 31 31" fill="none" xmlns="http://www.w3.org/2000/svg">
    <rect x="1" y="1" width="29" height="29" rx="14.5" fill="white" stroke="#CCCCCC" stroke-width="2"/>
    <path d="M21.3087 15.9837L23.7377 20.9735C23.8365 21.1764 23.7326 21.3424 23.5069 21.3424H8.26814C8.04244 21.3424 7.93859 21.1764 8.03739 20.9735L10.4664 15.9837C10.505 15.9043 10.6089 15.8394 10.6971 15.8394H12.7799C12.8441 15.8394 12.9308 15.8795 12.9728 15.9281C13.1141 16.0914 13.258 16.2509 13.4015 16.4088C13.5378 16.5587 13.6749 16.7105 13.8108 16.866H11.3391C11.2508 16.866 11.147 16.9309 11.1084 17.0103L9.49924 20.3159H22.2758L20.6668 17.0103C20.6282 16.9309 20.5243 16.866 20.436 16.866H17.9587C18.0946 16.7105 18.2317 16.5587 18.368 16.4088C18.512 16.2504 18.6567 16.0912 18.7983 15.9279C18.8403 15.8795 18.9268 15.8394 18.9909 15.8394H21.078C21.1663 15.8394 21.2701 15.9043 21.3087 15.9837ZM19.4586 12.5737C19.4586 15.3002 17.1888 15.8115 16.1213 18.4317C16.0346 18.6446 15.7348 18.6436 15.6481 18.4307C14.6851 16.0683 12.7447 15.4204 12.3734 13.3159C12.0079 11.244 13.4424 9.21447 15.5369 9.01648C17.6671 8.81512 19.4586 10.4852 19.4586 12.5737ZM17.7722 12.5737C17.7722 11.5314 16.9272 10.6865 15.8849 10.6865C14.8426 10.6865 13.9977 11.5314 13.9977 12.5737C13.9977 13.616 14.8426 14.4609 15.8849 14.4609C16.9272 14.4609 17.7722 13.616 17.7722 12.5737Z" fill="#C4C4C4"/>
</svg>
