<svg width="10" height="10" viewBox="0 0 10 10" fill="none" xmlns="http://www.w3.org/2000/svg">
    <g opacity="0.3" clip-path="url(#clip0)">
        <path d="M5.001 0C2.23978 0 0.00100708 2.23877 0.00100708 5C0.00100708 7.76119 2.23978 10 5.001 10C7.76222 10 10.0009 7.76116 10.0009 5C10.001 2.23877 7.76222 0 5.001 0ZM7.64132 7.29555L7.24098 7.69598C7.16951 7.76735 6.96022 7.81188 6.9535 7.81188C5.687 7.82293 4.46756 7.32546 3.57158 6.4294C2.67315 5.53045 2.1751 4.30665 2.18848 3.03589C2.18848 3.03531 2.23431 2.83202 2.30573 2.76129L2.70605 2.36091C2.85254 2.21373 3.13394 2.14723 3.33107 2.21318L3.41528 2.24127C3.61183 2.30716 3.8182 2.52448 3.8725 2.72471L4.07388 3.46381C4.12818 3.6646 4.05494 3.95027 3.90849 4.09677L3.64118 4.36411C3.90362 5.33569 4.66595 6.09816 5.63769 6.36124L5.90489 6.09383C6.05206 5.94666 6.33763 5.87347 6.53799 5.9277L7.27699 6.12979C7.47725 6.18482 7.69453 6.38989 7.7604 6.58638L7.78849 6.67181C7.85378 6.86838 7.78779 7.14972 7.64132 7.29555Z" fill="black"/>
    </g>
    <defs>
        <clipPath id="clip0">
            <rect width="10" height="10" fill="white"/>
        </clipPath>
    </defs>
</svg>
