<svg width="10" height="10" viewBox="0 0 10 10" fill="none" xmlns="http://www.w3.org/2000/svg">
    <g opacity="0.3">
        <path d="M5 0C2.2375 0 0 2.22822 0 4.97925C0 7.73029 2.2375 9.95851 5 9.95851C7.7625 9.95851 10 7.73029 10 4.97925C10 2.22822 7.7625 0 5 0ZM5.34583 5.58921C5.34583 5.60166 5.34167 5.61411 5.34167 5.62656C5.34167 5.63486 5.34167 5.6473 5.3375 5.6556C5.33333 5.6639 5.33333 5.67635 5.32917 5.68465C5.325 5.6971 5.32083 5.70954 5.31667 5.72199C5.31667 5.72199 5.31667 5.72614 5.3125 5.72614C5.30417 5.74274 5.29583 5.75934 5.2875 5.77178C5.2875 5.77178 5.2875 5.77178 5.2875 5.77593C5.275 5.79253 5.2625 5.80498 5.25 5.82158C5.24583 5.82573 5.24167 5.82988 5.2375 5.83403C5.225 5.84647 5.2125 5.85477 5.2 5.86307C5.19583 5.86722 5.19167 5.86722 5.1875 5.87137C5.17083 5.88382 5.15417 5.89212 5.1375 5.90041C5.13333 5.90041 5.12917 5.90456 5.125 5.90456C5.10833 5.90871 5.09583 5.91701 5.07917 5.91701C5.075 5.91701 5.06667 5.92116 5.0625 5.92116C5.04167 5.92531 5.02083 5.92531 5 5.92531C4.99583 5.92531 4.99167 5.92531 4.9875 5.92531C4.96667 5.92531 4.94583 5.92116 4.92917 5.91701C4.925 5.91701 4.91667 5.91286 4.9125 5.91286C4.89583 5.90871 4.87917 5.90456 4.8625 5.89627C4.8625 5.89627 4.85833 5.89627 4.85833 5.89212L2.94167 4.9917C2.77083 4.90871 2.69583 4.70539 2.775 4.53527C2.85833 4.36515 3.0625 4.29046 3.23333 4.36929L4.65833 5.03734V2.06639C4.65833 1.87552 4.8125 1.72199 5.00417 1.72199C5.19583 1.72199 5.35 1.87552 5.35 2.06639V5.58091C5.34583 5.58506 5.34583 5.58506 5.34583 5.58921Z" fill="black"/>
    </g>
</svg>
